<?xml version="1.0" encoding="iso-8859-1"?>
<!-- Uploaded to: SVG Repo, www.svgrepo.com, Generator: SVG Repo Mixer Tools -->
<svg height="800px" width="800px" version="1.1" id="Layer_1" xmlns="http://www.w3.org/2000/svg" xmlns:xlink="http://www.w3.org/1999/xlink" 
	 viewBox="0 0 393.309 393.309" xml:space="preserve">
<circle style="fill:#76D95B;" cx="196.655" cy="196.655" r="196.655"/>
<path style="fill:#8E342D;" d="M244.105,225.939c-1.034,0-1.875-0.646-2.069-1.616c-0.323-1.164,0.388-2.327,1.552-2.65
	c0.323-0.065,27.539-7.499,36.848-39.693c3.556-12.283,9.374-20.234,17.131-23.596c9.826-4.202,19.071,0.453,19.459,0.711
	c1.099,0.517,1.487,1.875,0.905,2.909c-0.517,1.099-1.875,1.487-2.909,0.905c-0.065-0.065-7.887-3.943-15.774-0.517
	c-6.594,2.844-11.507,9.826-14.675,20.816c-10.02,34.715-38.723,42.408-39.952,42.731
	C244.428,225.939,244.234,225.939,244.105,225.939z"/>
<g>
	<ellipse style="fill:#E99743;" cx="194.974" cy="242.424" rx="14.545" ry="45.834"/>
	<path style="fill:#E99743;" d="M148.945,201.956c0,0-26.376-1.293-20.945,21.398s35.362,51.135,35.362,51.135L148.945,201.956z"/>
	<path style="fill:#E99743;" d="M240.485,201.956c0,0,26.376-1.293,20.945,21.398s-35.362,51.135-35.362,51.135L240.485,201.956z"/>
</g>
<g>
	<path style="fill:#F0AF51;" d="M142.545,198.206l15.58,68.202c0,0-9.632,3.814-11.313,16.679h46.158c0,0,4.202-11.83,0-24.178
		c-4.202-12.347-3.62-53.786-3.62-53.786l-23.725-13.899L142.545,198.206z"/>
	<path style="fill:#F0AF51;" d="M246.885,198.206l-15.58,68.202c0,0,9.632,3.814,11.313,16.679h-46.158c0,0-4.202-11.83,0-24.178
		c4.202-12.347,3.62-53.786,3.62-53.786l23.661-13.964L246.885,198.206z"/>
</g>
<path style="fill:#945127;" d="M294.465,138.861c0-7.758-4.655-14.287-11.378-17.131c4.59-5.689,7.37-12.994,7.37-20.945
	c0-16.162-11.442-29.608-26.57-32.776c-2.651-13.511-14.545-23.661-28.768-23.661c-4.784,0-9.374,1.164-13.382,3.232
	c-4.396-10.408-14.739-17.778-26.828-17.778c-12.024,0-22.432,7.37-26.828,17.778c-4.008-2.069-8.598-3.232-13.382-3.232
	c-14.287,0-26.117,10.214-28.768,23.661c-15.192,3.168-26.57,16.679-26.57,32.776c0,7.887,2.78,15.127,7.37,20.945
	c-6.659,2.844-11.378,9.438-11.378,17.131c0,8.339,5.56,15.386,13.123,17.778c-0.453,1.875-0.776,3.814-0.776,5.818
	c0,10.99,7.564,20.17,17.778,22.691c-0.065,0.646-0.065,1.164-0.065,1.745c0,13.511,10.99,24.501,24.501,24.501
	c6.853,0,13.123-2.844,17.648-7.499c3.943,11.378,14.739,19.459,27.41,19.459c12.671,0,23.467-8.21,27.41-19.459
	c4.461,4.655,10.667,7.499,17.648,7.499c13.511,0,24.501-10.99,24.501-24.501c0-0.646-0.065-1.164-0.065-1.745
	c10.214-2.651,17.778-11.766,17.778-22.691c0-2.004-0.323-3.943-0.776-5.818C288.905,154.246,294.465,147.2,294.465,138.861z"/>
<path style="fill:#F0AF51;" d="M252.703,81.131c0-12.089-9.762-21.851-21.85-21.851c-9.244,0-17.196,5.754-20.364,13.899
	c-5.495-1.745-11.378-2.715-17.519-2.715c-6.077,0-11.96,0.97-17.455,2.651c-3.168-8.145-11.119-13.899-20.364-13.899
	c-12.089,0-21.851,9.762-21.851,21.851c0,7.564,3.814,14.222,9.697,18.166c-4.913,8.469-7.758,18.36-7.758,28.897
	c0,31.871,25.859,57.729,57.729,57.729s57.729-25.859,57.729-57.729c0-10.537-2.844-20.364-7.758-28.897
	C248.824,95.418,252.703,88.695,252.703,81.131z"/>
<ellipse style="fill:#8E342D;" cx="192.97" cy="149.527" rx="13.059" ry="9.503"/>
<g>
	<circle style="fill:#333842;" cx="168.986" cy="133.754" r="5.56"/>
	<circle style="fill:#333842;" cx="216.954" cy="133.754" r="5.56"/>
	<path style="fill:#333842;" d="M213.721,164.525c-18.618,9.115-38.012,0.065-38.271,0c-1.099-0.517-2.392-0.065-2.909,1.034
		s-0.065,2.392,1.034,2.909c0.517,0.323,9.762,4.59,21.786,4.59c6.271,0,13.317-1.164,20.299-4.59
		c1.099-0.517,1.552-1.875,1.034-2.909C216.113,164.461,214.82,163.943,213.721,164.525z"/>
</g>
<path style="fill:#8E342D;" d="M305.842,158.707c0.259-2.327,10.214-12.606,22.044-2.78c18.941,15.58-5.172,32.323-5.172,32.323
	s7.111-9.826-2.78-15.192S305.067,165.236,305.842,158.707z"/>
<g>
	<polygon style="fill:#4485C5;" points="261.107,291.362 128.84,291.362 130.586,283.152 259.426,283.152 	"/>
	<polygon style="fill:#4485C5;" points="276.493,363.572 113.519,363.572 116.105,351.224 273.842,351.224 	"/>
</g>
<polygon style="fill:#FBD303;" points="147.653,351.224 116.105,351.224 128.84,291.362 155.345,291.362 "/>
<polygon style="fill:#F0582F;" points="179.2,351.224 147.653,351.224 155.345,291.362 181.721,291.362 "/>
<polygon style="fill:#FBD303;" points="210.747,351.224 179.2,351.224 181.721,291.362 208.226,291.362 "/>
<polygon style="fill:#F0582F;" points="242.295,351.224 210.747,351.224 208.226,291.362 234.667,291.362 "/>
<polygon style="fill:#FBD303;" points="273.842,351.224 242.295,351.224 234.667,291.362 261.107,291.362 "/>
<g>
	<path style="fill:#945127;" d="M148.881,90.764c4.719-5.56,10.408-10.149,16.937-13.576c-1.616-4.396-5.818-7.499-10.731-7.499
		c-6.335,0-11.507,5.107-11.507,11.442C143.644,85.204,145.713,88.695,148.881,90.764z"/>
	<path style="fill:#945127;" d="M237.059,90.764c-4.719-5.56-10.408-10.149-16.937-13.576c1.616-4.396,5.818-7.499,10.731-7.499
		c6.335,0,11.507,5.107,11.507,11.442C242.295,85.204,240.162,88.695,237.059,90.764z"/>
</g>
</svg>